# xmcd CD database file
#
# Track frame offsets:
#	182
#	10980
#	23415
#	33847
#	45110
#	56480
#	68140
#	80942
#	93875
#	105762
#	117667
#	130072
#	143182
#	155887
#	167780
#	181722
#	194022
#	206292
#	218875
#	232822
#	246222
#	260827
#	274870
#
# Disc length: 3840 seconds
#
# Revision: 0
# Processed by: cddbd v1.5.2PL0 Copyright (c) Steve Scherf et al.
# Submitted via: CDex 1.51
#
DISCID=3a0efe17
DTITLE=Bix Beiderbecke - 1924 - 1927
DYEAR=1900
DGENRE=Jazz
TTITLE0=Fidgety Feet
TTITLE1=Jazz Me Blues
TTITLE2=Oh Baby
TTITLE3=Copenhagen
TTITLE4=Riverboat Shuffle
TTITLE5=Susie
TTITLE6=I Need Some Pettin'
TTITLE7=Royal Garden Blues
TTITLE8=Tiger Rag
TTITLE9=Sensation
TTITLE10=Lazy Daddy
TTITLE11=Tia Juana
TTITLE12=Big Boy
TTITLE13=Flock O' Blues
TTITLE14=I'm Glad
TTITLE15=Toddlin' Blues
TTITLE16=Davenport Blues
TTITLE17=In A Mist (Bixology)
TTITLE18=There Ain't No Land Like Dixieland To Me
TTITLE19=There's A Cradle In Caroline
TTITLE20=I'm More Than Satsified
TTITLE21=Clorinda
TTITLE22=Three Blind Mice
EXTD=
EXTT0=
EXTT1=
EXTT2=
EXTT3=
EXTT4=
EXTT5=
EXTT6=
EXTT7=
EXTT8=
EXTT9=
EXTT10=
EXTT11=
EXTT12=
EXTT13=
EXTT14=
EXTT15=
EXTT16=
EXTT17=
EXTT18=
EXTT19=
EXTT20=
EXTT21=
EXTT22=
PLAYORDER=
